PathFileType	4	(X/Y/Z)	s05c0401.trc
DataRate	CameraRate	NumFrames	NumMarkers	Units	OrigDataRate	OrigDataStartFrame	OrigNumFrames
200	200	4	50	mm	200	1500	2000
Frame#	Time	racr			lacr			c7			jug			rlel			rdr			llel			ldr			s2			lic			ric			lasi			rasi			rpsi			lpsi			rgt			lgt			rth1			rth2			rth3			rth4			rlfc			rmfc			rsh1			rsh2			rsh3			rsh4			rlmal			rmmal			rcal			rtoe			rmt5			lth1			lth2			lth4			lth3			llfc			lmfc			lsh1			lsh2			lsh3			lsh4			llmal			lmmal			lcal			ltoe			lmt5			SBIKE			LBIKE			RBIKE			
		X1	Y1	Z1	X2	Y2	Z2	X3	Y3	Z3	X4	Y4	Z4	X5	Y5	Z5	X6	Y6	Z6	X7	Y7	Z7	X8	Y8	Z8	X9	Y9	Z9	X10	Y10	Z10	X11	Y11	Z11	X12	Y12	Z12	X13	Y13	Z13	X14	Y14	Z14	X15	Y15	Z15	X16	Y16	Z16	X17	Y17	Z17	X18	Y18	Z18	X19	Y19	Z19	X20	Y20	Z20	X21	Y21	Z21	X22	Y22	Z22	X23	Y23	Z23	X24	Y24	Z24	X25	Y25	Z25	X26	Y26	Z26	X27	Y27	Z27	X28	Y28	Z28	X29	Y29	Z29	X30	Y30	Z30	X31	Y31	Z31	X32	Y32	Z32	X33	Y33	Z33	X34	Y34	Z34	X35	Y35	Z35	X36	Y36	Z36	X37	Y37	Z37	X38	Y38	Z38	X39	Y39	Z39	X40	Y40	Z40	X41	Y41	Z41	X42	Y42	Z42	X43	Y43	Z43	X44	Y44	Z44	X45	Y45	Z45	X46	Y46	Z46	X47	Y47	Z47	X48	Y48	Z48	X49	Y49	Z49	X50	Y50	Z50	
1500	7.5000	778.058809	1325.258510	-155.766831	753.116549	1341.748618	-461.204676	756.986494	1422.902929	-309.109716	707.875468	1260.672974	-309.831726	596.581988	1159.529926	18.203568	675.590959	956.471757	-61.265757	542.009412	1170.124730	-619.179612	661.735749	961.962071	-534.418574	172.125820	1255.450710	-226.119970	299.218560	1253.023352	-387.824917	339.079281	1251.788559	-106.525462	342.484661	1190.942050	-359.862414	359.521038	1184.927150	-139.325499	218.039296	1296.471827	-188.188361	211.945965	1298.916524	-275.766979	274.572893	1119.411482	-74.664577	215.774877	1155.189427	-404.970655	346.159036	1021.897734	-72.900083	410.737814	961.393241	-82.405964	434.338617	876.657123	-91.569260	438.406993	980.764134	-98.561090	486.528451	744.265637	-128.172250	464.070548	749.628304	-235.465540	386.209187	707.774165	-94.214615	320.697607	648.823025	-104.701833	237.998660	626.595668	-102.336096	335.256688	626.003372	-133.141667	120.791164	561.532285	-105.309253	146.438146	569.527966	-188.095213	59.355290	609.599858	-147.669427	160.744389	331.751236	-166.227684	102.156740	410.183844	-94.040159	274.220618	1022.014957	-433.213696	331.830351	958.618337	-433.795085	364.986991	973.330443	-424.157660	348.658117	869.561746	-433.652136	402.029183	735.147913	-411.032256	390.256690	721.033765	-305.476182	337.052582	623.455115	-439.361017	330.903438	536.639947	-431.131402	280.924494	463.134713	-430.830183	361.292490	528.125278	-408.799656	245.979855	345.950622	-427.438441	276.021389	362.849841	-355.838876	181.204092	324.013044	-383.593710	453.139986	212.800109	-408.780132	338.949299	223.764074	-465.556936	-219.716445	912.623358	-275.416034	-53.451298	79.071026	-475.088320	-53.419804	79.242215	-77.404859	
1501	7.5050	778.202357	1327.124247	-153.861163	753.765721	1344.677113	-459.099447	757.064055	1424.896206	-306.759532	708.328066	1262.830617	-308.181077	596.728682	1159.288349	18.550807	675.629208	956.560750	-61.731627	544.193418	1172.021823	-618.227471	661.995748	962.007743	-534.392285	171.797437	1254.044910	-229.614726	300.965879	1250.628898	-389.693403	337.675321	1252.572924	-107.968497	343.821365	1188.962993	-360.858655	358.854467	1185.577681	-140.464718	218.406068	1295.118922	-193.306788	211.956839	1297.031654	-278.652123	274.784978	1120.302758	-75.415115	216.311467	1152.069550	-406.091904	348.547814	1024.219266	-71.843797	414.561673	965.604566	-81.843792	440.546098	881.473063	-90.709417	441.738421	985.386227	-98.420338	495.414710	750.303164	-127.166239	473.376704	755.547072	-234.527710	394.839244	714.319242	-93.805234	328.818408	655.942012	-104.545685	246.023683	634.404687	-102.509864	342.934614	633.464355	-132.736186	128.518239	569.991185	-105.608747	154.340106	577.705366	-188.320833	67.313865	618.408669	-148.142768	167.113580	339.985016	-166.395076	109.032094	418.806647	-94.370002	272.248792	1017.862940	-433.762471	328.047201	952.953737	-433.625489	361.741615	966.694493	-423.480172	342.425580	863.428924	-433.087543	392.164256	727.837860	-409.776939	379.415153	713.203662	-304.763939	328.236334	615.472870	-438.999442	323.120950	528.658639	-430.703698	274.164610	454.458861	-430.878070	353.366615	520.536626	-407.904251	240.487614	338.098796	-427.588777	269.754430	355.345705	-356.770131	175.852751	316.898641	-383.838617	446.888959	203.019343	-408.511418	332.832398	214.967708	-465.416339	-219.694917	912.616810	-275.462072	-53.441465	79.063494	-475.102720	-53.415622	79.256522	-77.400994	
1502	7.5100	778.391678	1328.834986	-151.913274	754.287247	1347.657370	-456.805449	756.984000	1426.807221	-304.408331	708.697618	1264.925256	-306.452238	597.040212	1159.011177	19.298735	675.759030	956.715080	-62.046330	546.533722	1173.740535	-617.248567	662.730309	962.085882	-534.351457	171.640346	1252.481735	-232.417232	302.830155	1248.318435	-391.551421	336.149014	1253.159263	-109.810667	345.276197	1186.944936	-362.008517	358.106976	1186.134432	-141.566677	217.451376	1294.080494	-196.488918	211.944355	1294.897187	-281.444964	274.900270	1121.302307	-76.215526	216.920131	1149.144070	-407.198190	350.825967	1026.877013	-71.107186	418.237170	969.904020	-81.420939	446.505080	886.659118	-89.894447	444.905965	990.730997	-97.251257	504.198613	756.744578	-126.009996	482.890880	761.768698	-233.678982	403.443760	721.082066	-93.313707	337.013339	663.114485	-104.373104	254.001144	642.434326	-102.764796	351.243786	640.430765	-132.291523	136.565390	578.181028	-106.102800	162.526422	585.663908	-188.644424	75.547034	626.875046	-148.682789	174.188022	347.972178	-166.498421	116.389042	427.171132	-94.698717	270.399033	1014.030425	-434.724259	324.207885	947.388780	-433.686234	358.216965	960.177881	-423.327299	336.028339	857.461956	-432.754246	381.955221	720.530573	-408.867305	367.638815	706.267565	-304.431754	319.062294	607.725224	-438.828020	315.019242	520.936744	-430.542599	266.867572	446.236591	-431.144233	344.974756	513.259300	-407.317555	234.548122	330.709823	-427.898453	262.987593	348.272970	-357.787805	170.157353	309.371502	-382.976340	440.056369	193.632946	-408.345120	326.171303	206.597392	-465.327101	-219.697288	912.639648	-275.510749	-53.436472	79.090770	-475.103862	-53.404695	79.241455	-77.418857	
1503	7.5150	778.541263	1330.502521	-150.014222	754.729162	1350.565329	-454.315722	756.842230	1428.542408	-301.961667	708.945350	1267.163902	-304.607413	597.539074	1158.780718	20.380754	675.954240	956.859577	-62.401288	549.140223	1175.356598	-616.100036	663.907100	962.199353	-534.336047	171.476737	1250.926759	-235.208225	305.532884	1245.632015	-394.250957	334.764753	1253.758878	-111.625486	346.737412	1184.935123	-363.073781	357.281726	1186.586862	-142.744063	216.252182	1293.159809	-198.931608	211.905069	1293.048577	-284.656931	274.907575	1122.244835	-77.185753	217.720618	1146.269414	-408.301061	352.839110	1029.787398	-70.929895	421.683275	974.408929	-80.972385	452.215104	891.957900	-89.035210	447.985205	996.016978	-96.648619	512.915789	763.506486	-124.789439	492.146936	768.003847	-232.653898	412.013895	728.009881	-92.692189	345.314160	670.429626	-104.118763	262.459010	649.971587	-102.955825	359.705539	647.483493	-131.667104	144.897123	585.880586	-106.591077	171.032783	593.184204	-188.979062	83.754274	634.552021	-149.557838	181.846045	355.517174	-166.618866	124.265618	434.927220	-94.990060	268.573088	1010.221101	-435.745808	320.349915	941.925735	-433.872362	354.626459	953.989927	-423.453480	329.531220	851.757571	-432.876508	371.424051	713.548322	-408.501319	355.663110	699.731766	-304.429397	309.569407	600.509356	-439.050106	306.452671	513.670805	-430.657395	259.253580	438.274461	-431.558553	336.275775	506.345369	-406.989475	228.139755	323.807755	-428.267889	255.785736	341.648541	-358.874722	163.761941	304.353761	-385.236306	432.767656	184.836905	-408.074025	319.097395	198.697339	-465.252526	-219.694101	912.652087	-275.536550	-53.430511	79.074936	-475.115240	-53.406376	79.263465	-77.418330	
